<svg width="60" height="60" viewBox="0 0 60 60" fill="none" xmlns="http://www.w3.org/2000/svg">
<path d="M30 13C31.2381 17.9123 33.7143 21.9035 37.4286 24.9737C41.1429 28.0439 43 31.4211 43 35.1053C43 38.5252 41.6304 41.805 39.1924 44.2232C36.7544 46.6415 33.4478 48 30 48C26.5522 48 23.2456 46.6415 20.8076 44.2232C18.3696 41.805 17 38.5252 17 35.1053C17 33.1124 17.6517 31.1733 18.8571 29.5789C18.8571 30.8003 19.3463 31.9717 20.217 32.8354C21.0877 33.699 22.2686 34.1842 23.5 34.1842C24.7314 34.1842 25.9123 33.699 26.783 32.8354C27.6537 31.9717 28.1429 30.8003 28.1429 29.5789C28.1429 25.8947 25.3571 24.0526 25.3571 20.3684C25.3571 17.9123 26.9048 15.4561 30 13Z" stroke="#D9582E" stroke-width="4" stroke-linecap="round" stroke-linejoin="round"/>
</svg>
